<svg xmlns="http://www.w3.org/2000/svg" width="128" height="128" viewBox="0 0 24 24"><path fill="#000000" d="M19.836 10.486a.91.91 0 0 1-.21.47l-9.75 10.71a.94.94 0 0 1-.49.33c-.083.01-.167.01-.25 0a1 1 0 0 1-.41-.09a.92.92 0 0 1-.45-.46a.91.91 0 0 1-.07-.58l.86-6.86h-3.63a1.661 1.661 0 0 1-.6-.15a1.29 1.29 0 0 1-.68-.99a1.29 1.29 0 0 1 .09-.62l3.78-9.45c.1-.239.266-.444.48-.59a1.28 1.28 0 0 1 .72-.21h7.24c.209.004.414.055.6.15c.188.105.349.253.47.43c.112.179.18.38.2.59a1.18 1.18 0 0 1-.1.61l-2.39 5.57h3.65a1 1 0 0 1 .51.16a1 1 0 0 1 .43 1z"/></svg>