<svg xmlns="http://www.w3.org/2000/svg" width="24" height="15.328125" viewBox="0 0 512 327"><path fill="#F15A24" d="m92.354 96.1l4.734 3.975l-57.397 68.357l-4.734-3.975zm-12.387 38.378c9.209 0 16.674 7.465 16.674 16.674c0 9.21-7.465 16.674-16.674 16.674s-16.674-7.465-16.674-16.674s7.465-16.674 16.674-16.674m0 9.654a7.02 7.02 0 1 0 0 14.041a7.02 7.02 0 0 0 0-14.041m-28.083-47.39c9.209 0 16.674 7.465 16.674 16.674s-7.465 16.674-16.674 16.674c-9.21 0-16.674-7.465-16.674-16.674s7.465-16.674 16.674-16.674m0 9.653a7.02 7.02 0 1 0 0 14.042a7.02 7.02 0 0 0 0-14.042m107.568 55.25h-40.986v6.18h40.986z"/><path d="M295.228 0c28.884 0 52.298 23.415 52.298 52.299V317.82h-17.59V78.127H17.59v196.19c0 19.169 15.54 34.708 34.709 34.708h119.345v17.59H52.3C23.415 326.615 0 303.2 0 274.316V52.3C0 23.415 23.415 0 52.299 0zm0 17.59H52.3c-19.17 0-34.71 15.54-34.71 34.709v8.24l312.347-.002V52.3c0-19.17-15.54-34.709-34.708-34.709"/><path d="M239.842 317.663a9.06 9.06 0 0 0-9.058-9.057c-.068 0-.136 0-.205.01H210.22c-.172 0-.34-.039-.491-.122a1.027 1.027 0 0 1-.377-.338a1.023 1.023 0 0 1-.175-.475a.97.97 0 0 1 .07-.501l29.775-74.237a8.045 8.045 0 0 0-.803-7.499a8.044 8.044 0 0 0-6.66-3.535h-31.38c-.18-.01-.355-.03-.535-.03a8.824 8.824 0 0 0-8.157 5.45a8.825 8.825 0 0 0 0 6.757a8.815 8.815 0 0 0 8.157 5.446c.139 0 .274-.01.41-.02h16.262c.178 0 .355.05.513.127a1.096 1.096 0 0 1 .574.85c.02.177 0 .356-.07.522l-25.819 64.482a9.7 9.7 0 0 0-.695 3.608v7.907a9.708 9.708 0 0 0 9.707 9.708h30.265a9.058 9.058 0 0 0 6.4-2.651a9.054 9.054 0 0 0 2.652-6.4zm52.415-73.307a46.384 46.384 0 0 0-.809-9.482l-.156-.78c-.55-2.843-1.654-5.108-3.306-6.796c-1.563-1.778-3.767-3.021-6.615-3.732c-2.756-.8-6.293-1.2-10.61-1.2c-4.134 0-8.868.4-11.717 1.2a13.692 13.692 0 0 0-6.751 3.865c-1.653 1.866-2.848 4.398-3.582 7.597c-.703 2.968-1.069 6.705-1.1 11.212l-.002 1.945c.009 4.026.057 7.326.136 9.899a51.97 51.97 0 0 0 .828 6.93a13.462 13.462 0 0 0 1.79 4.265a17.093 17.093 0 0 0 2.756 3.065a28.108 28.108 0 0 0 4.686 3.331a112.74 112.74 0 0 0 4.497 2.474l1.152.592a79.963 79.963 0 0 1 5.512 3.065a23.449 23.449 0 0 1 4.548 3.332a18.817 18.817 0 0 1 1.515 1.865c.335.395.595.846.769 1.334c.158.435.292.878.398 1.33a9.39 9.39 0 0 1 .211 2.134c.089 1.066.138 2.533.138 4.399c.04 2.538-.1 5.076-.413 7.596a10.816 10.816 0 0 1-1.103 4.131a3.789 3.789 0 0 1-2.205 1.733c-.918.266-4.094.4-5.471.4c-1.117.02-2.23-.114-3.308-.4a4.552 4.552 0 0 1-2.066-1.866a15.471 15.471 0 0 1-1.103-3.998a64.003 64.003 0 0 1-.275-6.651a6.431 6.431 0 0 0-.04-.742h-.059a7.409 7.409 0 0 0-2.494-4.555a7.474 7.474 0 0 0-9.767 0a7.409 7.409 0 0 0-2.494 4.555h-.04a7.66 7.66 0 0 0-.039.816v.335l.047 3.588l.002.523c0 5.241.368 9.506 1.103 12.794c.827 3.197 2.113 5.73 3.858 7.596a13.265 13.265 0 0 0 6.22 3.508l.395.09a38.52 38.52 0 0 0 9.077 1.074l1.635-.013c4.254-.051 9.385-.45 12.122-1.194a12.986 12.986 0 0 0 7.027-4.531c1.838-2.221 3.124-5.286 3.858-9.196c.795-3.838 1.207-8.7 1.239-14.585l.002-.74c0-4.533-.138-8.175-.414-10.93a23.83 23.83 0 0 0-1.24-6.796a11.062 11.062 0 0 0-2.617-4.265a21.725 21.725 0 0 0-3.997-3.198a39.252 39.252 0 0 0-4.134-2.266a63.664 63.664 0 0 0-4.96-2.532a122.368 122.368 0 0 1-4.961-2.666a41.516 41.516 0 0 1-3.997-2.798a13.62 13.62 0 0 1-1.653-1.6a5.77 5.77 0 0 1-.827-1.999a21.1 21.1 0 0 1-.413-3.065v-5.064c-.02-1.915.069-3.828.276-5.731a9.13 9.13 0 0 1 .964-3.332a3.327 3.327 0 0 1 2.067-1.465c.827-.268 3.127-.4 4.413-.4c2.94 0 4.776.843 5.511 2.532a7.919 7.919 0 0 1 .96 3.464l.018.688c.019.847.031 1.838.031 2.867h.05v.05c0 1.97.785 3.86 2.185 5.252a7.477 7.477 0 0 0 5.276 2.175a7.478 7.478 0 0 0 5.276-2.175a7.41 7.41 0 0 0 2.18-4.958l.006-.344v-3.555zm55.169-13.723a8.703 8.703 0 0 0-9.459-8.718a8.716 8.716 0 0 0-6.163 3.383a8.71 8.71 0 0 0-1.653 6.834v31.028c0 .515-.204 1.009-.569 1.373a1.938 1.938 0 0 1-1.373.569h-10.766a1.942 1.942 0 0 1-1.942-1.942v-32.529a8.707 8.707 0 0 0-17.407-.314l-.005.511v87.244a8.708 8.708 0 0 0 14.863 6.156a8.707 8.707 0 0 0 2.544-5.842l.006-.354V283.49a1.942 1.942 0 0 1 1.941-1.942h10.766a1.942 1.942 0 0 1 1.942 1.942v33.044a8.678 8.678 0 0 0 1.89 7.113a8.68 8.68 0 0 0 6.298 3.086l.45.007a8.644 8.644 0 0 0 7.98-5.333a8.635 8.635 0 0 0 .657-3.305zm116.219 95.866a2.464 2.464 0 0 1-2.464-2.465v-93.653a8.499 8.499 0 0 1 8.5-8.499a8.5 8.5 0 0 1 8.499 8.499v76.374c0 .905.734 1.64 1.64 1.64h23.128a9.052 9.052 0 0 1 0 18.104zm-56.79 0a2.465 2.465 0 0 1-2.465-2.465v-93.653a8.5 8.5 0 0 1 8.5-8.499a8.499 8.499 0 0 1 8.499 8.499v76.374c0 .905.733 1.64 1.64 1.64h23.128a9.052 9.052 0 1 1 0 18.104zm-50.075 0a3.357 3.357 0 0 1-3.357-3.357v-97.893a3.367 3.367 0 0 1 3.368-3.367h33.032a8.637 8.637 0 1 1 0 17.275H372.52a2.096 2.096 0 0 0-2.097 2.096v21.543c0 1.141.925 2.065 2.065 2.065h17.336a8.223 8.223 0 1 1 0 16.447h-17.336c-1.14 0-2.065.924-2.065 2.065v22.936c0 1.152.934 2.086 2.086 2.086h16.763a9.052 9.052 0 0 1 0 18.104z"/></svg>